#!OML:ASF E:/inclinewalkrobotboard/Project1/Captureday1/Session1/subject1.ASF
:FULLY-SPECIFIED
:DEGREES
329
root 0 0 0 -2.289548326771712 -3.9311513678769314 0.4695896293276736
lowerback 7.40368539727164 1.547597994109288 -2.478225860230358
upperback 1.7678721676787021 1.9251164950169644 -0.03799340631632664
thorax -2.348194506549791 1.0108609648855786 1.248352188359815
lowerneck -9.384175357059076 -5.460522791615769 -6.296278646995136
upperneck 31.313200422965007 -8.594782970374142 5.82266617309427
head 11.69114097021941 -3.9165381759535856 1.9212655634749107
rclavicle -2.7098623659041014E-15 1.4082949581047305E-15
rhumerus -8.6191631422728 2.49889076843254 -79.55782951291035
rradius 50.068605710819305
rwrist -21.119562448548546
rhand -41.83846528895074 15.558277750467305
rfingers 7.125019999999943
rthumb -14.697301831544735 -13.863181838049178
lclavicle -6.381936301580237E-15 6.956223607755544E-16
lhumerus -30.406140180787688 11.30830793425183 78.11570041751463
lradius 25.006344051974835
lwrist -4.507057124852921
lhand -23.91976609377278 22.01368046299597
lfingers 7.12501999999995
lthumb 2.554554052077177 51.94850668288834
rfemur -9.04143018082718 7.931176463309069 33.32743916019016
rtibia 32.57929546699964
rfoot -16.38492897696756 -9.463596317359276
rtoes 6.6921765927008945
lfemur -25.998636779035525 3.8211469842944528 -13.766738337311402
ltibia 60.156723973880254
lfoot -4.250035173124064 -5.780144165902366
ltoes -7.386337588701806
330
root 0 0 0 -2.2656822097382503 -3.9012387701775104 0.4770868896645915
lowerback 7.4066250112149215 1.5608162180977314 -2.4815131992364656
upperback 1.8004213343654123 1.9416961226306997 -0.04672332898825815
thorax -2.3146942614657107 1.020157855546943 1.2388647564800097
lowerneck -9.313249523309548 -5.471628843387511 -6.329462781625349
upperneck 31.23079744244207 -8.607375360900708 5.8759327117323865
head 11.662940836439237 -3.9237679505889873 1.9411270392012523
rclavicle -2.9600976689692366E-15 1.5342477732374014E-15
rhumerus -9.112516747459676 3.100194118927674 -79.67684281759787
rradius 50.75987120499599
rwrist -21.28651113486935
rhand -41.8181685143074 15.367487037174936
rfingers 7.125019999999946
rthumb -14.682200225479798 -14.0582266682775
lclavicle -6.574380469223442E-15 9.075620742911794E-16
lhumerus -30.481599289306292 11.334288628929263 78.00488476330176
lradius 24.96648746029764
lwrist -4.563305740999773
lhand -23.92491067123936 22.023780615530324
lfingers 7.12501999999995
lthumb 2.5496809953968773 51.95828299445438
rfemur -4.958668407494642 8.128730200488786 33.79592268374171
rtibia 30.110099604043135
rfoot -18.250670663830952 -9.356614503897111
rtoes 6.097125316717872
lfemur -26.968668301412073 3.7063027392687147 -13.430357149015766
ltibia 59.10855287138852
lfoot -4.73476922506708 -5.078253732775012
ltoes -7.556895754871257
331
root 0 0 0 -2.230157295474978 -3.8633787385362264 0.4874608160817587
lowerback 7.423482362880706 1.5766306444800438 -2.4903246921319675
upperback 1.8430049810545528 1.9607013947198848 -0.05732342261868484
thorax -2.2788431681554338 1.0309633721708673 1.2297776736166353
lowerneck -9.229114749347357 -5.488748278473035 -6.374362556996035
upperneck 31.127807611214717 -8.626074824626777 5.951787465134986
head 11.628054830138817 -3.9342180268071503 1.9697080634422464
rclavicle -3.1218751620439313E-15 1.6715789081882599E-15
rhumerus -9.553789840474028 3.630923892541392 -79.79041273280077
rradius 51.34918068036359
rwrist -21.41258591884172
rhand -41.814946491115435 15.231964618822264
rfingers 7.125019999999949
rthumb -14.68283360156969 -14.196787151456249
lclavicle -6.720578345641755E-15 1.141787102076701E-15
lhumerus -30.581785129566065 11.399115829895706 77.84304598717617
lradius 24.917988261129345
lwrist -4.633245553537974
lhand -23.961705674795564 22.019043164356507
lfingers 7.125019999999952
lthumb 2.5143758139746595 51.95363737796538
rfemur -1.4811610646070679 8.28059986661481 34.23387323623015
rtibia 28.20856720388818
rfoot -19.730978452532646 -9.242470992081234
rtoes 5.506238182501079
lfemur -28.23714197597621 3.387695365294805 -13.16566751624871
ltibia 56.584437919260985
lfoot -5.150084136598284 -4.377381706546396
ltoes -7.502127485330217
332
root 0 0 0 -2.191072749044268 -3.822803631563316 0.49845673549639874
lowerback 7.44736044848317 1.5928415599234826 -2.5020738326264684
upperback 1.88688900090688 1.9797551677252412 -0.0681553640141378
thorax -2.2458627413420267 1.041814903515619 1.2217285810764813
lowerneck -9.14830623164977 -5.50827394428536 -6.4227626123716
upperneck 31.0255366562112 -8.6471142423385 6.034043572026805
head 11.594058112179441 -3.945705786751841 2.00081841646272
rclavicle -3.124504072176276E-15 1.758270378871218E-15
rhumerus -9.884133443970505 4.013634781087807 -79.88298228917976
rradius 51.73002491501092
rwrist -21.486205087617055
rhand -41.82260145186032 15.173231420601038
rfingers 7.12501999999995
rthumb -14.692617459921577 -14.257440579062626
lclavicle -6.757572494904072E-15 1.3145351767880912E-15
lhumerus -30.693314012535758 11.495142336135526 77.65156737965712
lradius 24.868106111835118
lwrist -4.705952820141332
lhand -24.02794001848956 21.9985512721581
lfingers 7.125019999999953
lthumb 2.4508138321356516 51.93371557506915
rfemur 0.7058884144685567 8.379228800624249 34.49412388295416
rtibia 27.06955082002164
rfoot -20.592714037793606 -9.185989783430177
rtoes 5.020242480623935
lfemur -29.64831040424739 2.9056059367418907 -12.95492782226098
ltibia 52.930116810796235
lfoot -5.47313225719844 -3.723498349449029
ltoes -7.258757343769322
333
root 0 0 0 -2.1567782860337186 -3.785922867534325 0.507344694161219
lowerback 7.473009091211811 1.6064132212062445 -2.513605676961715
upperback 1.9218801756450072 1.9954636988757921 -0.07689029921461488
thorax -2.2235837038093336 1.0506840881950377 1.2159784910031255
lowerneck -9.091393124137946 -5.5258181031312805 -6.463812072603513
upperneck 30.944830465998923 -8.665325168288588 6.104527797441033
head 11.568369907931723 -3.955391316843545 2.027689007866324
rclavicle -2.964352641513454E-15 1.7739580697206646E-15
rhumerus -10.06350055061603 4.197523714574874 -79.9427668298999
rradius 51.843812436313996
rwrist -21.502913020525252
rhand -41.83582175049501 15.196349416973167
rfingers 7.125019999999951
rthumb -14.70587300310465 -14.23515648126187
lclavicle -6.682061825577736E-15 1.3952492348160858E-15
lhumerus -30.802242330109095 11.608080341864968 77.4556022979038
lradius 24.823518999331146
lwrist -4.771019852209739
lhand -24.114921414457005 21.965980982881955
lfingers 7.125019999999954
lthumb 2.3673736400754404 51.90211653530712
rfemur 1.850613405038732 8.43508105817745 34.605808373055645
rtibia 26.542429384432644
rfoot -20.960575365072028 -9.16932176028218
rtoes 4.611154851250162
lfemur -30.851480317537614 2.3520688563455057 -12.835984919476545
ltibia 48.87795682021176
lfoot -5.625942972056729 -3.2906169587488474
ltoes -6.866928736961555
334
root 0 0 0 -2.131650046096724 -3.7569866244160233 0.512385149259365
lowerback 7.499216580051798 1.6151372825095922 -2.5227784773772064
upperback 1.9415967039874662 2.005292284972872 -0.08182342961706424
thorax -2.2182167948606692 1.0560870079073972 1.2136128197585783
lowerneck -9.072011517242792 -5.53840362350716 -6.489720093397589
upperneck 30.89496264441808 -8.676717380303371 6.152576735481574
head 11.554262598125797 -3.9612070814919838 2.0465276473730842
rclavicle -2.697911937469298E-15 1.7434875560064687E-15
rhumerus -10.083430520575405 4.173270948828749 -79.96791752855812
rradius 51.69886806595081
rwrist -21.462743032432954
rhand -41.85756449074373 15.290491766475665
rfingers 7.125019999999951
rthumb -14.725357706049481 -14.14043285777151
lclavicle -6.535739505042135E-15 1.4084016788262366E-15
lhumerus -30.89738416564715 11.722228222523855 77.27703569737204
lradius 24.787065506677045
lwrist -4.824083540317082
lhand -24.208041542516977 21.927901379324474
lfingers 7.125019999999955
lthumb 2.2780736444780016 51.865238656861315
rfemur 2.3904202549476206 8.46018084492517 34.642158686098924
rtibia 26.425848880426834
rfoot -21.01666168015334 -9.150600961130104
rtoes 4.228588400648336
lfemur -31.63536667398286 1.8249499715687865 -12.839092993817117
ltibia 45.145217525707636
lfoot -5.548926211497054 -3.18066838656142
ltoes -6.3572232693311115
335
root 0 0 0 -2.1157040844466573 -3.737018421951637 0.5134498715247366
lowerback 7.526620332721441 1.6185829250043444 -2.5290389263834934
upperback 1.9456719137503158 2.0087350276293705 -0.08268016484645346
thorax -2.2305854342724696 1.057755860527093 1.2147998687781554
lowerneck -9.09044868925229 -5.5453697605552 -6.498924273831346
upperneck 30.873230388197513 -8.680220255948127 6.177536081035679
head 11.550604098119324 -3.9627089742581045 2.0572160878288734
rclavicle -2.3941573067051973E-15 1.6942800344857928E-15
rhumerus -9.963055730198661 3.969045437542907 -79.96307590118033
rradius 51.352581621091794
rwrist -21.373291253982888
rhand -41.89142070505658 15.433783753522206
rfingers 7.12501999999995
rthumb -14.754989537762372 -13.99495221925289
lclavicle -6.3630029113435734E-15 1.38410234696938E-15
lhumerus -30.97048446728471 11.823391412863701 77.13314806199396
lradius 24.75957068323432
lwrist -4.864124776371212
lhand -24.292085445016433 21.890904529864837
lfingers 7.125019999999956
lthumb 2.1975064338795276 51.82948448332673
rfemur 2.537848389254733 8.459670691965314 34.64079207917061
rtibia 26.625018022223585
rfoot -20.852902976329183 -9.112372952866727
rtoes 3.870931879669175
lfemur -31.98551057323091 1.4027437763052486 -12.972908867519639
ltibia 42.23512329995714
lfoot -5.256126696543691 -3.3828765227539233
ltoes -5.765787594217107
336
root 0 0 0 -2.107268147297791 -3.7255852605591624 0.5115253740970425
lowerback 7.554162387884994 1.6176285605632428 -2.532748104069412
upperback 1.9379211301020018 2.006855043348308 -0.08030072204060557
thorax -2.2559118305829866 1.056365430735076 1.2188143797667554
lowerneck -9.135768196800575 -5.54753726781073 -6.494583419287193
upperneck 30.872636728490892 -8.677280301831633 6.183990697673133
head 11.554418901246978 -3.960779577570106 2.061325275234454
rclavicle -2.1068753700272927E-15 1.6401122163005054E-15
rhumerus -9.737034396044592 3.636093156974212 -79.93391865437783
rradius 50.88372366367439
rwrist -21.250267439745805
rhand -41.9344893133807 15.600063521108666
rfingers 7.1250199999999495
rthumb -14.79267988614733 -13.82518795070962
lclavicle -6.19510850380289E-15 1.3378103582079607E-15
lhumerus -31.01561481542937 11.899792308752284 77.03726405095529
lradius 24.74226973019764
lwrist -4.8895174040622305
lhand -24.3555811201523 21.86022160286408
lfingers 7.125019999999957
lthumb 2.136676459748953 51.799903123787004
rfemur 2.2892055265442077 8.432060042398803 34.60555993942111
rtibia 27.141518673190653
rfoot -20.493538385432117 -9.071077847945483
rtoes 3.5976224935270924
lfemur -31.962232626993995 1.130741496162642 -13.22596194520602
ltibia 40.398761454368426
lfoot -4.828643806781343 -3.819267106468482
ltoes -5.149187503562294
